<?xml version="1.0" encoding="utf-8" standalone="no"?><!DOCTYPE svg PUBLIC "-//W3C//DTD SVG 20010904//EN" "http://www.w3.org/TR/2001/REC-SVG-20010904/DTD/svg10.dtd"><svg xmlns="http://www.w3.org/2000/svg" width="579" height="577" xmlns:xlink="http://www.w3.org/1999/xlink"><source><![CDATA[Note over kubecsr: Generate:\n* Private Key\n* CSR
kubecsr->KubeApiserver: Submit csr
Note over KubeApiserver: Pending
kubecsr->KubeApiserver: Approve csr
Note over KubeApiserver: Approved
KubeControllerManager-->KubeApiserver: Issue certificate
Note over KubeApiserver: Approved,Issued
kubecsr->KubeApiserver: Fetch certificate
kubecsr->KubeApiserver: Purge csr
]]></source><desc></desc><defs><marker viewBox="0 0 5 5" markerWidth="5" markerHeight="5" orient="auto" refX="5" refY="2.5" id="markerArrowBlock"><path d="M 0 0 L 5 2.5 L 0 5 z"></path></marker><marker viewBox="0 0 9.6 16" markerWidth="4" markerHeight="16" orient="auto" refX="9.6" refY="8" id="markerArrowOpen"><path d="M 9.6,8 1.92,16 0,13.7 5.76,8 0,2.286 1.92,0 9.6,8 z"></path></marker></defs><g class="title"></g><g class="actor"><path d="M28.3828125,20C89.6,16.5 58.4,23.5 116.5,20.0C114.8,48.3 118.2,55.5 116.5,62.3C90.9,58.8 69.8,65.8 28.4,62.3C26.7,28.0 30.1,52.7 28.4,20.0" stroke="#000000" fill="#ffffff" style="stroke-width: 2;"></path><text x="38.9453125" y="46" style="font-size: 16px; font-family: danielbd;"><tspan x="38.3828125">kubecsr</tspan></text></g><g class="actor"><path d="M28.3828125,514.921875C49.1,518.4 56.3,511.4 116.5,514.9C114.8,521.7 118.2,526.5 116.5,557.2C53.0,560.7 95.3,553.7 28.4,557.2C30.1,525.1 26.7,521.7 28.4,514.9" stroke="#000000" fill="#ffffff" style="stroke-width: 2;"></path><text x="38.9453125" y="540.921875" style="font-size: 16px; font-family: danielbd;"><tspan x="38.3828125">kubecsr</tspan></text></g><path d="M72.4,62.3C54.3,428.2 90.5,406.3 72.4,514.9" stroke="#000000" fill="none" style="stroke-width: 2;"></path><g class="actor"><path d="M163.484375,20C225.6,14.2 264.0,25.8 308.3,20.0C306.6,36.9 310.0,44.2 308.3,62.3C198.2,56.5 186.6,68.1 163.5,62.3C161.8,26.8 165.2,52.2 163.5,20.0" stroke="#000000" fill="#ffffff" style="stroke-width: 2;"></path><text x="174.046875" y="44.2734375" style="font-size: 16px; font-family: danielbd;"><tspan x="173.484375">KubeApiserver</tspan></text></g><g class="actor"><path d="M163.484375,514.921875C273.5,520.7 236.2,509.1 308.3,514.9C310.0,537.9 306.6,538.1 308.3,557.2C250.2,551.4 239.9,563.0 163.5,557.2C165.2,546.9 161.8,525.1 163.5,514.9" stroke="#000000" fill="#ffffff" style="stroke-width: 2;"></path><text x="174.046875" y="539.1953125" style="font-size: 16px; font-family: danielbd;"><tspan x="173.484375">KubeApiserver</tspan></text></g><path d="M235.9,62.3C254.0,415.0 217.8,315.8 235.9,514.9" stroke="#000000" fill="none" style="stroke-width: 2;"></path><g class="actor"><path d="M328.265625,20C514.4,11.1 412.2,28.9 549.9,20.0C551.6,52.1 548.2,42.3 549.9,62.3C455.5,71.1 496.7,53.4 328.3,62.3C326.6,30.1 330.0,50.5 328.3,20.0" stroke="#000000" fill="#ffffff" style="stroke-width: 2;"></path><text x="338.828125" y="43.703125" style="font-size: 16px; font-family: danielbd;"><tspan x="338.265625">KubeControllerManager</tspan></text></g><g class="actor"><path d="M328.265625,514.921875C381.4,523.8 492.6,506.1 549.9,514.9C551.6,547.1 548.2,525.1 549.9,557.2C496.7,548.3 514.4,566.1 328.3,557.2C330.0,532.2 326.6,529.1 328.3,514.9" stroke="#000000" fill="#ffffff" style="stroke-width: 2;"></path><text x="338.828125" y="538.625" style="font-size: 16px; font-family: danielbd;"><tspan x="338.265625">KubeControllerManager</tspan></text></g><path d="M439.1,62.3C457.2,353.9 421.0,406.3 439.1,514.9" stroke="#000000" fill="none" style="stroke-width: 2;"></path><g class="note"><path d="M10,82.28125C43.6,87.3 100.0,77.3 134.9,82.3C132.3,136.9 137.5,123.4 134.9,147.3C114.9,152.2 63.3,142.3 10.0,147.3C12.6,107.6 7.4,131.7 10.0,82.3" stroke="#000000" fill="#ffffff" style="stroke-width: 2;"></path><text x="15.5625" y="100.421875" style="font-size: 16px; font-family: danielbd;"><tspan x="15">Generate:</tspan><tspan dy="1.2em" x="15">* Private Key</tspan><tspan dy="1.2em" x="15">* CSR</tspan></text></g><g class="signal"><text x="106.7890625" y="177.109375" style="font-size: 16px; font-family: danielbd;"><tspan x="105.6484375">Submit csr</tspan></text><path d="M72.4,183.8C196.7,190.3 111.7,177.3 235.9,183.8" stroke="#000000" fill="none" style="stroke-width: 2; marker-end: url(&quot;#markerArrowBlock&quot;);"></path></g><g class="note"><path d="M200.3828125,203.8125C211.7,206.7 217.4,201.0 271.4,203.8C272.7,221.8 270.1,211.6 271.4,236.1C254.3,233.3 260.0,238.9 200.4,236.1C199.1,209.0 201.7,229.6 200.4,203.8" stroke="#000000" fill="#ffffff" style="stroke-width: 2;"></path><text x="205.9453125" y="222.515625" style="font-size: 16px; font-family: danielbd;"><tspan x="205.3828125">Pending</tspan></text></g><g class="signal"><text x="99.7734375" y="264.2265625" style="font-size: 16px; font-family: danielbd;"><tspan x="99.2109375">Approve csr</tspan></text><path d="M72.4,277.2C111.7,283.8 107.1,270.7 235.9,277.2" stroke="#000000" fill="none" style="stroke-width: 2; marker-end: url(&quot;#markerArrowBlock&quot;);"></path></g><g class="note"><path d="M188.125,297.234375C239.4,293.4 226.2,301.1 283.6,297.2C284.9,323.4 282.4,302.2 283.6,328.4C219.0,324.6 245.5,332.2 188.1,328.4C186.9,320.7 189.4,309.0 188.1,297.2" stroke="#000000" fill="#ffffff" style="stroke-width: 2;"></path><text x="193.6875" y="315.9375" style="font-size: 16px; font-family: danielbd;"><tspan x="193.125">Approved</tspan></text></g><g class="signal"><text x="270.296875" y="358.234375" style="font-size: 16px; font-family: danielbd;"><tspan x="269.734375">Issue certificate</tspan></text><path d="M439.1,364.9C406.6,373.1 366.5,356.8 235.9,364.9" stroke="#000000" fill="none" style="stroke-width: 2; stroke-dasharray: 6, 2; marker-end: url(&quot;#markerArrowBlock&quot;);"></path></g><g class="note"><path d="M160.4921875,384.9375C280.4,391.0 200.7,378.9 311.3,384.9C312.5,392.4 310.0,393.9 311.3,416.1C197.0,410.0 276.9,422.1 160.5,416.1C159.2,407.0 161.7,403.2 160.5,384.9" stroke="#000000" fill="#ffffff" style="stroke-width: 2;"></path><text x="166.0546875" y="403.640625" style="font-size: 16px; font-family: danielbd;"><tspan x="165.4921875">Approved,Issued</tspan></text></g><g class="signal"><text x="83" y="446.5078125" style="font-size: 16px; font-family: danielbd;"><tspan x="82.4375">Fetch certificate</tspan></text><path d="M72.4,453.8C111.7,460.3 98.6,447.2 235.9,453.8" stroke="#000000" fill="none" style="stroke-width: 2; marker-end: url(&quot;#markerArrowBlock&quot;);"></path></g><g class="signal"><text x="111.890625" y="480.7734375" style="font-size: 16px; font-family: danielbd;"><tspan x="111.328125">Purge csr</tspan></text><path d="M72.4,494.9C209.7,488.4 98.6,501.5 235.9,494.9" stroke="#000000" fill="none" style="stroke-width: 2; marker-end: url(&quot;#markerArrowBlock&quot;);"></path></g></svg>